<mxfile host="app.diagrams.net" modified="2024-01-12T11:42:08.379Z" agent="Mozilla/5.0 (Windows NT 10.0; Win64; x64) AppleWebKit/537.36 (KHTML, like Gecko) Chrome/120.0.0.0 Safari/537.36" etag="Z979kf-iawY1UdcgpGC1" version="22.1.18" type="github">
  <diagram id="R2lEEEUBdFMjLlhIrx00" name="Page-1">
    <mxGraphModel dx="794" dy="458" grid="1" gridSize="10" guides="1" tooltips="1" connect="1" arrows="1" fold="1" page="1" pageScale="1" pageWidth="850" pageHeight="1100" math="0" shadow="0" extFonts="Permanent Marker^https://fonts.googleapis.com/css?family=Permanent+Marker">
      <root>
        <mxCell id="0" />
        <mxCell id="1" parent="0" />
        <mxCell id="wE6OEuBswiEwMVIbf5wJ-4" value="" style="edgeStyle=orthogonalEdgeStyle;rounded=0;orthogonalLoop=1;jettySize=auto;html=1;endArrow=none;endFill=0;" edge="1" parent="1" source="wE6OEuBswiEwMVIbf5wJ-1" target="wE6OEuBswiEwMVIbf5wJ-3">
          <mxGeometry relative="1" as="geometry" />
        </mxCell>
        <mxCell id="wE6OEuBswiEwMVIbf5wJ-1" value="Active" style="rounded=0;whiteSpace=wrap;html=1;" vertex="1" parent="1">
          <mxGeometry x="240" y="40" width="200" height="380" as="geometry" />
        </mxCell>
        <mxCell id="wE6OEuBswiEwMVIbf5wJ-6" value="" style="edgeStyle=orthogonalEdgeStyle;rounded=0;orthogonalLoop=1;jettySize=auto;html=1;endArrow=none;endFill=0;" edge="1" parent="1" source="wE6OEuBswiEwMVIbf5wJ-3" target="wE6OEuBswiEwMVIbf5wJ-5">
          <mxGeometry relative="1" as="geometry" />
        </mxCell>
        <mxCell id="wE6OEuBswiEwMVIbf5wJ-3" value="Tranzactii" style="rounded=0;whiteSpace=wrap;html=1;" vertex="1" parent="1">
          <mxGeometry x="570" y="200" width="120" height="60" as="geometry" />
        </mxCell>
        <mxCell id="wE6OEuBswiEwMVIbf5wJ-5" value="Brokeri" style="rounded=0;whiteSpace=wrap;html=1;" vertex="1" parent="1">
          <mxGeometry x="570" y="340" width="120" height="60" as="geometry" />
        </mxCell>
        <mxCell id="wE6OEuBswiEwMVIbf5wJ-8" value="Actiuni" style="rounded=0;whiteSpace=wrap;html=1;" vertex="1" parent="1">
          <mxGeometry x="280" y="80" width="120" height="60" as="geometry" />
        </mxCell>
        <mxCell id="wE6OEuBswiEwMVIbf5wJ-9" value="Obligatiuni" style="rounded=0;whiteSpace=wrap;html=1;" vertex="1" parent="1">
          <mxGeometry x="280" y="150" width="120" height="60" as="geometry" />
        </mxCell>
        <mxCell id="wE6OEuBswiEwMVIbf5wJ-10" value="Criptomonede" style="rounded=0;whiteSpace=wrap;html=1;" vertex="1" parent="1">
          <mxGeometry x="280" y="260" width="120" height="60" as="geometry" />
        </mxCell>
        <mxCell id="wE6OEuBswiEwMVIbf5wJ-11" value="ETFuri" style="rounded=0;whiteSpace=wrap;html=1;" vertex="1" parent="1">
          <mxGeometry x="280" y="340" width="120" height="60" as="geometry" />
        </mxCell>
        <mxCell id="wE6OEuBswiEwMVIbf5wJ-13" value="" style="edgeStyle=orthogonalEdgeStyle;rounded=0;orthogonalLoop=1;jettySize=auto;html=1;endArrow=none;endFill=0;" edge="1" parent="1" source="wE6OEuBswiEwMVIbf5wJ-12" target="wE6OEuBswiEwMVIbf5wJ-1">
          <mxGeometry relative="1" as="geometry" />
        </mxCell>
        <mxCell id="wE6OEuBswiEwMVIbf5wJ-12" value="Detineri" style="rounded=0;whiteSpace=wrap;html=1;" vertex="1" parent="1">
          <mxGeometry x="580" y="70" width="120" height="60" as="geometry" />
        </mxCell>
        <mxCell id="wE6OEuBswiEwMVIbf5wJ-15" value="" style="edgeStyle=orthogonalEdgeStyle;rounded=0;orthogonalLoop=1;jettySize=auto;html=1;endArrow=none;endFill=0;" edge="1" parent="1" source="wE6OEuBswiEwMVIbf5wJ-14" target="wE6OEuBswiEwMVIbf5wJ-10">
          <mxGeometry relative="1" as="geometry" />
        </mxCell>
        <mxCell id="wE6OEuBswiEwMVIbf5wJ-14" value="Blockchain" style="rounded=0;whiteSpace=wrap;html=1;" vertex="1" parent="1">
          <mxGeometry x="20" y="260" width="120" height="60" as="geometry" />
        </mxCell>
        <mxCell id="wE6OEuBswiEwMVIbf5wJ-16" value="sunt facute la un" style="text;html=1;strokeColor=none;fillColor=none;align=center;verticalAlign=middle;whiteSpace=wrap;rounded=0;" vertex="1" parent="1">
          <mxGeometry x="630" y="280" width="100" height="30" as="geometry" />
        </mxCell>
        <mxCell id="wE6OEuBswiEwMVIbf5wJ-18" value="se efectueaza intre 2" style="text;html=1;strokeColor=none;fillColor=none;align=center;verticalAlign=middle;whiteSpace=wrap;rounded=0;" vertex="1" parent="1">
          <mxGeometry x="440" y="230" width="130" height="30" as="geometry" />
        </mxCell>
        <mxCell id="wE6OEuBswiEwMVIbf5wJ-19" value="are mai multe" style="text;html=1;strokeColor=none;fillColor=none;align=center;verticalAlign=middle;whiteSpace=wrap;rounded=0;" vertex="1" parent="1">
          <mxGeometry x="150" y="260" width="80" height="30" as="geometry" />
        </mxCell>
        <mxCell id="wE6OEuBswiEwMVIbf5wJ-20" value="contine" style="text;html=1;strokeColor=none;fillColor=none;align=center;verticalAlign=middle;whiteSpace=wrap;rounded=0;" vertex="1" parent="1">
          <mxGeometry x="510" y="70" width="60" height="30" as="geometry" />
        </mxCell>
        <mxCell id="wE6OEuBswiEwMVIbf5wJ-21" value="1" style="text;html=1;strokeColor=none;fillColor=none;align=center;verticalAlign=middle;whiteSpace=wrap;rounded=0;" vertex="1" parent="1">
          <mxGeometry x="610" y="310" width="60" height="30" as="geometry" />
        </mxCell>
        <mxCell id="wE6OEuBswiEwMVIbf5wJ-22" value="M" style="text;html=1;strokeColor=none;fillColor=none;align=center;verticalAlign=middle;whiteSpace=wrap;rounded=0;" vertex="1" parent="1">
          <mxGeometry x="610" y="260" width="60" height="30" as="geometry" />
        </mxCell>
        <mxCell id="wE6OEuBswiEwMVIbf5wJ-23" value="M" style="text;html=1;strokeColor=none;fillColor=none;align=center;verticalAlign=middle;whiteSpace=wrap;rounded=0;" vertex="1" parent="1">
          <mxGeometry x="540" y="100" width="60" height="30" as="geometry" />
        </mxCell>
        <mxCell id="wE6OEuBswiEwMVIbf5wJ-24" value="1" style="text;html=1;strokeColor=none;fillColor=none;align=center;verticalAlign=middle;whiteSpace=wrap;rounded=0;" vertex="1" parent="1">
          <mxGeometry x="440" y="200" width="40" height="30" as="geometry" />
        </mxCell>
        <mxCell id="wE6OEuBswiEwMVIbf5wJ-25" value="M" style="text;html=1;strokeColor=none;fillColor=none;align=center;verticalAlign=middle;whiteSpace=wrap;rounded=0;" vertex="1" parent="1">
          <mxGeometry x="530" y="200" width="60" height="30" as="geometry" />
        </mxCell>
        <mxCell id="wE6OEuBswiEwMVIbf5wJ-26" value="M" style="text;html=1;strokeColor=none;fillColor=none;align=center;verticalAlign=middle;whiteSpace=wrap;rounded=0;" vertex="1" parent="1">
          <mxGeometry x="240" y="290" width="60" height="30" as="geometry" />
        </mxCell>
        <mxCell id="wE6OEuBswiEwMVIbf5wJ-27" value="1" style="text;html=1;strokeColor=none;fillColor=none;align=center;verticalAlign=middle;whiteSpace=wrap;rounded=0;" vertex="1" parent="1">
          <mxGeometry x="130" y="290" width="60" height="30" as="geometry" />
        </mxCell>
      </root>
    </mxGraphModel>
  </diagram>
</mxfile>
